<?xml version="1.0" standalone="no"?>
<svg xmlns:xlink="http://www.w3.org/1999/xlink" id="wave" style="transform:rotate(0deg); transition: 0.3s" viewBox="0 0 1440 400" version="1.1" xmlns="http://www.w3.org/2000/svg"><defs><linearGradient id="sw-gradient-0" x1="0" x2="0" y1="1" y2="0"><stop stop-color="rgba(124, 167, 63, 1)" offset="0%"/><stop stop-color="rgba(255, 255, 255, 0.403921568627451)" offset="100%"/></linearGradient></defs><path style="transform:translate(0, 0px); opacity:1" fill="url(#sw-gradient-0)" d="M0,80L48,106.7C96,133,192,187,288,226.7C384,267,480,293,576,266.7C672,240,768,160,864,113.3C960,67,1056,53,1152,46.7C1248,40,1344,40,1440,60C1536,80,1632,120,1728,153.3C1824,187,1920,213,2016,240C2112,267,2208,293,2304,313.3C2400,333,2496,347,2592,300C2688,253,2784,147,2880,126.7C2976,107,3072,173,3168,206.7C3264,240,3360,240,3456,246.7C3552,253,3648,267,3744,253.3C3840,240,3936,200,4032,180C4128,160,4224,160,4320,140C4416,120,4512,80,4608,93.3C4704,107,4800,173,4896,180C4992,187,5088,133,5184,140C5280,147,5376,213,5472,226.7C5568,240,5664,200,5760,166.7C5856,133,5952,107,6048,100C6144,93,6240,107,6336,113.3C6432,120,6528,120,6624,100C6720,80,6816,40,6864,20L6912,0L6912,400L6864,400C6816,400,6720,400,6624,400C6528,400,6432,400,6336,400C6240,400,6144,400,6048,400C5952,400,5856,400,5760,400C5664,400,5568,400,5472,400C5376,400,5280,400,5184,400C5088,400,4992,400,4896,400C4800,400,4704,400,4608,400C4512,400,4416,400,4320,400C4224,400,4128,400,4032,400C3936,400,3840,400,3744,400C3648,400,3552,400,3456,400C3360,400,3264,400,3168,400C3072,400,2976,400,2880,400C2784,400,2688,400,2592,400C2496,400,2400,400,2304,400C2208,400,2112,400,2016,400C1920,400,1824,400,1728,400C1632,400,1536,400,1440,400C1344,400,1248,400,1152,400C1056,400,960,400,864,400C768,400,672,400,576,400C480,400,384,400,288,400C192,400,96,400,48,400L0,400Z"/></svg>